<svg width="40" height="40" viewBox="0 0 40 40" fill="none" xmlns="http://www.w3.org/2000/svg">
<path fill-rule="evenodd" clip-rule="evenodd" d="M22.724 34.545V21.2762H27.2629L27.9439 16.1036H22.724V12.8017C22.724 11.3046 23.1461 10.2843 25.3374 10.2843L28.1276 10.2832V5.65662C27.6451 5.59511 25.9887 5.4541 24.0609 5.4541C20.0353 5.4541 17.2793 7.86423 17.2793 12.2894V16.1036H12.7266V21.2762H17.2793V34.545H22.724Z" fill="white"/>
<mask id="mask0_392_1145" style="mask-type:luminance" maskUnits="userSpaceOnUse" x="12" y="5" width="17" height="30">
<path fill-rule="evenodd" clip-rule="evenodd" d="M22.724 34.545V21.2762H27.2629L27.9439 16.1036H22.724V12.8017C22.724 11.3046 23.1461 10.2843 25.3374 10.2843L28.1276 10.2832V5.65662C27.6451 5.59511 25.9887 5.4541 24.0609 5.4541C20.0353 5.4541 17.2793 7.86423 17.2793 12.2894V16.1036H12.7266V21.2762H17.2793V34.545H22.724Z" fill="white"/>
</mask>
<g mask="url(#mask0_392_1145)">
</g>
</svg>
