<svg width="555" height="160" viewBox="0 0 555 160" fill="none" xmlns="http://www.w3.org/2000/svg">
<path fill-rule="evenodd" clip-rule="evenodd" d="M19.5566 74.354C9.39838 83.9069 5.27082 93.3436 6.10607 102.349C6.93609 111.297 12.9594 119.791 25.0962 127.307C37.233 134.822 55.1042 141.097 78.6637 145.631C125.75 154.692 194.787 156.655 284.045 148.376C373.303 140.097 440.801 125.471 485.418 107.904C507.741 99.1141 524.153 89.6589 534.701 80.0394C545.248 70.42 549.607 60.9634 548.777 52.0147C547.988 43.5076 541.833 34.6954 528.797 27.0355C515.791 19.3933 496.33 13.1632 469.975 9.77135C417.293 2.99099 337.742 7.63696 229.042 34.1481C227.432 34.5406 225.809 33.554 225.416 31.9443C225.024 30.3347 226.011 28.7115 227.62 28.3189C336.736 1.70644 417.074 -3.08661 470.741 3.82044C497.562 7.27227 517.89 13.6675 531.837 21.8625C545.753 30.0397 553.714 40.2766 554.751 51.4606C555.821 62.9965 550.049 74.1625 538.744 84.4726C527.439 94.7826 510.278 104.564 487.616 113.486C442.261 131.344 374.138 146.046 284.599 154.351C195.061 162.655 125.396 160.734 77.5299 151.523C53.6132 146.921 34.9454 140.463 21.9374 132.408C8.92924 124.353 1.20171 114.439 0.131717 102.903C-0.933041 91.4233 4.48434 80.2918 15.4461 69.9832C26.3908 59.6906 43.1241 49.9428 65.5003 41.0438C110.28 23.2351 178.411 8.53444 270.284 0.0129644C271.934 -0.140057 273.395 1.0733 273.548 2.72307C273.701 4.37285 272.488 5.8343 270.838 5.98732C179.229 14.4843 111.739 29.1118 67.7176 46.619C45.6936 55.378 29.7319 64.785 19.5566 74.354Z" fill="#124433"/>
</svg>
